<mxfile host="app.diagrams.net" agent="Mozilla/5.0 (Windows NT 10.0; Win64; x64; rv:140.0) Gecko/20100101 Firefox/140.0" version="28.2.8">
  <diagram name="Page-1" id="6kQDpkPHO7eHdEnQdlcd">
    <mxGraphModel dx="1875" dy="559" grid="1" gridSize="10" guides="1" tooltips="1" connect="1" arrows="1" fold="1" page="1" pageScale="1" pageWidth="827" pageHeight="1169" math="0" shadow="0">
      <root>
        <mxCell id="0" />
        <mxCell id="1" parent="0" />
        <mxCell id="45EGJfHRO3PJXa6B7vJo-1" style="edgeStyle=orthogonalEdgeStyle;rounded=0;orthogonalLoop=1;jettySize=auto;html=1;exitX=0.75;exitY=1;exitDx=0;exitDy=0;entryX=0;entryY=0.5;entryDx=0;entryDy=0;" edge="1" parent="1" source="45EGJfHRO3PJXa6B7vJo-3" target="45EGJfHRO3PJXa6B7vJo-7">
          <mxGeometry relative="1" as="geometry" />
        </mxCell>
        <mxCell id="45EGJfHRO3PJXa6B7vJo-2" style="edgeStyle=orthogonalEdgeStyle;rounded=0;orthogonalLoop=1;jettySize=auto;html=1;exitX=0.75;exitY=0;exitDx=0;exitDy=0;entryX=0;entryY=0.5;entryDx=0;entryDy=0;" edge="1" parent="1" source="45EGJfHRO3PJXa6B7vJo-3" target="45EGJfHRO3PJXa6B7vJo-5">
          <mxGeometry relative="1" as="geometry" />
        </mxCell>
        <mxCell id="45EGJfHRO3PJXa6B7vJo-3" value="Lab / Data Scientist" style="rounded=1;whiteSpace=wrap;html=1;fillColor=#fff2cc;strokeColor=#d6b656;" vertex="1" parent="1">
          <mxGeometry x="-620" y="486.27" width="120" height="60" as="geometry" />
        </mxCell>
        <mxCell id="45EGJfHRO3PJXa6B7vJo-4" style="rounded=0;orthogonalLoop=1;jettySize=auto;html=1;exitX=1;exitY=0.5;exitDx=0;exitDy=0;entryX=0;entryY=0.5;entryDx=0;entryDy=0;entryPerimeter=0;" edge="1" parent="1" source="45EGJfHRO3PJXa6B7vJo-5" target="45EGJfHRO3PJXa6B7vJo-16">
          <mxGeometry relative="1" as="geometry" />
        </mxCell>
        <mxCell id="45EGJfHRO3PJXa6B7vJo-5" value="Équipe info" style="rounded=1;whiteSpace=wrap;html=1;fillColor=#f8cecc;strokeColor=#b85450;" vertex="1" parent="1">
          <mxGeometry x="-330" y="416.27" width="120" height="60" as="geometry" />
        </mxCell>
        <mxCell id="45EGJfHRO3PJXa6B7vJo-6" style="edgeStyle=orthogonalEdgeStyle;rounded=0;orthogonalLoop=1;jettySize=auto;html=1;exitX=0.25;exitY=0;exitDx=0;exitDy=0;entryX=1;entryY=0.75;entryDx=0;entryDy=0;" edge="1" parent="1" source="45EGJfHRO3PJXa6B7vJo-7" target="45EGJfHRO3PJXa6B7vJo-3">
          <mxGeometry relative="1" as="geometry" />
        </mxCell>
        <mxCell id="45EGJfHRO3PJXa6B7vJo-7" value="Équipe métier / Data Scientist" style="rounded=1;whiteSpace=wrap;html=1;fillColor=#dae8fc;strokeColor=#6c8ebf;" vertex="1" parent="1">
          <mxGeometry x="-330" y="556.27" width="120" height="60" as="geometry" />
        </mxCell>
        <mxCell id="45EGJfHRO3PJXa6B7vJo-8" value="2. Soumission d&#39;un modèle" style="text;html=1;strokeColor=none;fillColor=none;align=center;verticalAlign=middle;whiteSpace=wrap;rounded=0;" vertex="1" parent="1">
          <mxGeometry x="-530" y="581.27" width="190" height="30" as="geometry" />
        </mxCell>
        <mxCell id="45EGJfHRO3PJXa6B7vJo-9" value="3. Validation du modèle" style="text;html=1;strokeColor=none;fillColor=none;align=center;verticalAlign=middle;whiteSpace=wrap;rounded=0;" vertex="1" parent="1">
          <mxGeometry x="-490" y="510" width="190" height="30" as="geometry" />
        </mxCell>
        <mxCell id="45EGJfHRO3PJXa6B7vJo-10" value="4. Transmission du modèle" style="text;html=1;strokeColor=none;fillColor=none;align=center;verticalAlign=middle;whiteSpace=wrap;rounded=0;" vertex="1" parent="1">
          <mxGeometry x="-530" y="421.27" width="190" height="30" as="geometry" />
        </mxCell>
        <mxCell id="45EGJfHRO3PJXa6B7vJo-11" value="" style="curved=1;endArrow=classic;html=1;rounded=0;exitX=0.25;exitY=0;exitDx=0;exitDy=0;entryX=0.25;entryY=1;entryDx=0;entryDy=0;" edge="1" parent="1" source="45EGJfHRO3PJXa6B7vJo-3" target="45EGJfHRO3PJXa6B7vJo-3">
          <mxGeometry width="50" height="50" relative="1" as="geometry">
            <mxPoint x="-660" y="476.27" as="sourcePoint" />
            <mxPoint x="-730" y="566.27" as="targetPoint" />
            <Array as="points">
              <mxPoint x="-690" y="456.27" />
              <mxPoint x="-690" y="576.27" />
            </Array>
          </mxGeometry>
        </mxCell>
        <mxCell id="45EGJfHRO3PJXa6B7vJo-12" value="1. Expérimentations et optimisations du modèle " style="text;html=1;strokeColor=none;fillColor=none;align=center;verticalAlign=middle;whiteSpace=wrap;rounded=0;" vertex="1" parent="1">
          <mxGeometry x="-810" y="501.27" width="120" height="30" as="geometry" />
        </mxCell>
        <mxCell id="45EGJfHRO3PJXa6B7vJo-13" value="" style="curved=1;endArrow=classic;html=1;rounded=0;exitX=0.167;exitY=0;exitDx=0;exitDy=0;exitPerimeter=0;entryX=0.75;entryY=0;entryDx=0;entryDy=0;" edge="1" parent="1" source="45EGJfHRO3PJXa6B7vJo-5" target="45EGJfHRO3PJXa6B7vJo-5">
          <mxGeometry width="50" height="50" relative="1" as="geometry">
            <mxPoint x="-310" y="406.27" as="sourcePoint" />
            <mxPoint x="-240" y="415.27" as="targetPoint" />
            <Array as="points">
              <mxPoint x="-320" y="366.27" />
              <mxPoint x="-240" y="366.27" />
            </Array>
          </mxGeometry>
        </mxCell>
        <mxCell id="45EGJfHRO3PJXa6B7vJo-14" value="6. Mise en production " style="text;html=1;strokeColor=none;fillColor=none;align=center;verticalAlign=middle;whiteSpace=wrap;rounded=0;" vertex="1" parent="1">
          <mxGeometry x="-230" y="446.27" width="190" height="30" as="geometry" />
        </mxCell>
        <mxCell id="45EGJfHRO3PJXa6B7vJo-16" value="Serveurs" style="shape=cylinder3;whiteSpace=wrap;html=1;boundedLbl=1;backgroundOutline=1;size=15;fillColor=#f8cecc;strokeColor=#b85450;" vertex="1" parent="1">
          <mxGeometry x="-150" y="476.27" width="60" height="80" as="geometry" />
        </mxCell>
        <mxCell id="45EGJfHRO3PJXa6B7vJo-17" value="5. Qualification technique (vulnérabilités, temps, charge, ...)" style="text;html=1;strokeColor=none;fillColor=none;align=center;verticalAlign=middle;whiteSpace=wrap;rounded=0;" vertex="1" parent="1">
          <mxGeometry x="-370" y="330" width="190" height="30" as="geometry" />
        </mxCell>
      </root>
    </mxGraphModel>
  </diagram>
</mxfile>
